HIERARCHY
ROOT Hips
{
  OFFSET -0.288389 97.7614 1.1032
  CHANNELS 6 Xposition Yposition Zposition Zrotation Xrotation Yrotation
  JOINT Spine
  {
    OFFSET 0 10.1816 0.1315
    CHANNELS 3 Zrotation Xrotation Yrotation
    JOINT Spine1
    {
      OFFSET 0 10.0835 -1.0008
      CHANNELS 3 Zrotation Xrotation Yrotation
      JOINT Spine2
      {
        OFFSET 0 9.1 -1.3734
        CHANNELS 3 Zrotation Xrotation Yrotation
        JOINT Neck
        {
          OFFSET 0 16.6717 -2.5162
          CHANNELS 3 Zrotation Xrotation Yrotation
          JOINT Head
          {
            OFFSET 0 9.6179 1.685
            CHANNELS 3 Zrotation Xrotation Yrotation
            End Site
            {
              OFFSET 0 0 0
            }
          }
        }
        JOINT LeftShoulder
        {
          OFFSET 4.5704 10.946 -2.628
          CHANNELS 3 Zrotation Xrotation Yrotation
          JOINT LeftArm
          {
            OFFSET 10.5924 -0.5246 -2.2321
            CHANNELS 3 Zrotation Xrotation Yrotation
            JOINT LeftForeArm
            {
              OFFSET 27.8415 -0.0001 0
              CHANNELS 3 Zrotation Xrotation Yrotation
              JOINT LeftHand
              {
                OFFSET 28.3288 0 0
                CHANNELS 3 Zrotation Xrotation Yrotation
                End Site
                {
                  OFFSET 0 0 0
                }
              }
            }
          }
        }
        JOINT RightShoulder
        {
          OFFSET -4.57 10.9462 -2.628
          CHANNELS 3 Zrotation Xrotation Yrotation
          JOINT RightArm
          {
            OFFSET -10.5928 -0.5248 -2.2321
            CHANNELS 3 Zrotation Xrotation Yrotation
            JOINT RightForeArm
            {
              OFFSET -27.8415 0 0
              CHANNELS 3 Zrotation Xrotation Yrotation
              JOINT RightHand
              {
                OFFSET -28.3288 0 0.0001
                CHANNELS 3 Zrotation Xrotation Yrotation
                End Site
                {
                  OFFSET 0 0 0
                }
              }
            }
          }
        }
      }
    }
  }
  JOINT LeftUpLeg
  {
    OFFSET 8.2078 -6.7517 -1.5996
    CHANNELS 3 Zrotation Xrotation Yrotation
    JOINT LeftLeg
    {
      OFFSET 0 -44.3705 0.2846
      CHANNELS 3 Zrotation Xrotation Yrotation
      JOINT LeftFoot
      {
        OFFSET 0 -44.4279 -2.9822
        CHANNELS 3 Zrotation Xrotation Yrotation
        JOINT LeftToeBase
        {
          OFFSET 0 -8.7287 10.7106
          CHANNELS 3 Zrotation Xrotation Yrotation
          End Site
          {
            OFFSET 0 0 0
          }
        }
      }
    }
  }
  JOINT RightUpLeg
  {
    OFFSET -8.2078 -6.7517 -1.5996
    CHANNELS 3 Zrotation Xrotation Yrotation
    JOINT RightLeg
    {
      OFFSET 0 -44.3705 0.2862
      CHANNELS 3 Zrotation Xrotation Yrotation
      JOINT RightFoot
      {
        OFFSET 0 -44.4277 -2.9838
        CHANNELS 3 Zrotation Xrotation Yrotation
        JOINT RightToeBase
        {
          OFFSET 0 -8.7287 10.7106
          CHANNELS 3 Zrotation Xrotation Yrotation
          End Site
          {
            OFFSET 0 0 0
          }
        }
      }
    }
  }
}
MOTION
Frames:	13
Frame Time:	0.0333333
-11.6473 88.0243 -41.6257 5.93913 -18.5175 105.27 2.37132 3.04045 1.59152 0.393917 6.10972 4.12874 0.39392 6.10972 4.12874 5.75933 -11.9298 32.4035 1.86124 1.89527 11.4314 -9.81135 -0.636971 -6.40476 -1.73665 -15.0166 -37.0257 0.0384843 -0.0647517 -29.2746 35.8294 -11.1706 4.44526 13.8904 -2.34948 9.2106 48.0705 -6.84377 4.01409 -0.000515406 -0.0451655 85.4743 -49.6869 6.4052 -2.01528 6.93521 -28.5508 9.10533 -15.5172 79.7231 13.3816 21.2602 -7.0985 26.5571 1.74966 -15.1084 -9.46155 -8.63552 -19.1766 11.081 4.3558 60.6299 -2.31995 23.2484 13.3125 -8.95756 5.10938 -2.7655 -11.8846 
-12.0696 86.9664 -47.2289 6.09585 -18.1015 115.13 2.02303 3.24604 0.319936 0.585296 6.51443 1.53368 0.585299 6.51443 1.53367 5.55617 -14.9367 31.2407 2.91941 1.05291 9.95675 -8.46264 -0.371971 -6.7447 -6.08575 -28.5993 -48.6863 0.0726679 -0.0728388 -38.2184 36.8129 -0.307523 -3.70582 11.5418 -2.1761 7.86361 40.313 -15.8734 3.51578 -0.0200173 -0.0594879 81.8477 -47.2185 1.93596 -7.67163 1.13273 -17.1497 3.09041 -5.34218 64.3801 3.56597 20.261 -21.7836 21.8536 -1.28594 -22.2029 -11.3307 -10.3012 -29.0379 8.47425 13.8765 79.0154 -11.9291 13.3072 19.0535 6.92227 2.752 -2.32254 -6.17569 
-13.1305 86.2577 -52.3452 6.6578 -16.8007 126.627 1.51883 3.62368 -1.30782 1.01622 7.24987 -1.99442 1.01622 7.24987 -1.99441 6.74275 -19.0562 30.7186 2.45994 1.94398 9.08854 -4.22214 -0.128379 -6.39791 -10.701 -33.5746 -62.9017 0.0774195 -0.0473118 -40.7663 45.4932 14.341 -22.8273 7.38345 -1.92117 5.49709 35.0663 -20.2014 2.99067 -0.0418054 -0.0801776 71.1887 -41.0754 -6.3116 -1.34761 -3.25699 -8.01781 -3.31028 -3.07132 52.5833 2.69648 23.9283 -33.3055 18.0252 1.80266 -16.0001 -10.1432 -13.1348 -38.9142 3.6429 155.818 82.7394 -153.929 10.3147 11.1237 15.0547 2.47444 -3.16753 -5.63872 
-14.1804 86.6539 -58.1394 7.8431 -16.1326 137.144 1.38859 3.89692 -2.85015 1.98283 7.75501 -5.39142 1.98284 7.75501 -5.39143 8.8718 -22.0579 30.8259 0.646453 4.03728 8.92576 1.49466 0.10725 -5.70567 -9.77324 -30.9012 -71.8833 0.0702411 -0.0230686 -35.5554 53.9511 20.5115 -35.45 3.94148 -1.63313 3.44266 32.8324 -17.0053 1.72623 -0.0533146 -0.0996028 58.4134 -36.7177 -9.80049 6.81217 -4.58163 -0.495736 -8.42163 -2.09874 42.8155 1.84632 25.9208 -32.6581 14.1095 1.68662 -14.2078 -8.78539 -14.9485 -49.4147 -3.46943 169.892 72.0341 -168.27 17.0999 -0.650138 15.0681 5.93227 -0.146991 -13.1231 
-14.3075 87.9426 -65.6812 9.23975 -17.0707 143.838 1.66151 3.84121 -3.93435 3.03342 7.58834 -7.69969 3.03341 7.58836 -7.69969 11.6857 -23.7653 31.8153 -1.63913 6.31647 9.73533 4.9264 0.278484 -5.40965 4.57822 -20.1951 -70.5388 0.0427386 -0.00203911 -29.2916 45.4146 15.1389 -21.9733 3.74526 -1.54146 3.27286 32.9747 -8.70463 -0.00138984 -0.0502003 -0.10491 50.7507 -31.9979 -6.83508 9.33485 -3.61396 5.15703 -10.6309 -1.60698 34.9339 0.523359 21.5449 -22.4235 7.15581 3.30107 -16.6071 -8.40256 -13.4003 -59.9821 -11.3431 170.699 70.3774 -169.237 22.7765 -9.92284 15.4099 11.8006 0.219255 -26.0844 
-13.7941 90.4168 -74.5747 9.62187 -18.3567 146.971 1.99549 3.6143 -4.57365 3.35109 7.1047 -9.01862 3.35109 7.10469 -9.01861 14.1901 -25.6418 33.225 -3.31882 7.54881 10.9528 2.75659 0.285806 -6.17678 17.4437 -4.27044 -68.9556 0.0235492 0.00611314 -25.8621 30.5624 -0.76154 -9.08774 6.93661 -1.56791 5.24202 36.0599 -1.57882 -0.937282 -0.0408298 -0.0950057 50.0624 -24.6417 -1.1649 8.27553 -3.28741 7.52602 -9.73237 -1.37672 30.9976 0.277298 13.7487 -7.44412 -0.535037 8.67774 -17.0907 -9.92338 -7.16337 -64.997 -15.0861 164.374 78.7359 -162.86 25.0557 -10.1355 16.1822 10.8225 -3.02408 -25.4025 
-13.0583 93.6351 -83.3979 8.37327 -17.2601 148.666 1.66399 3.64822 -4.74116 2.64172 7.1888 -9.51254 2.64171 7.1888 -9.51253 14.5856 -27.588 33.6188 -3.72864 6.75019 11.4463 -6.39982 0.143539 -7.98579 20.3815 12.5216 -66.7445 0.0145532 0.00859014 -23.5949 26.2313 -7.48831 -5.97842 12.0866 -1.41735 8.26935 42.2876 0.916126 -1.0743 -0.0324486 -0.0831652 52.8312 -17.7338 2.10249 8.40497 -4.46358 4.93231 -5.40583 -1.68846 36.1996 0.506993 6.39581 7.27252 -5.60062 6.40577 -1.91656 -10.197 -0.435926 -59.8358 -14.203 32.8781 84.8977 -31.2589 26.3656 -3.51768 16.2076 4.91792 -0.825344 -10.9656 
-11.798 95.5485 -91.6015 6.55906 -13.5626 150.355 0.917958 3.93699 -4.35142 1.30997 7.82399 -8.77356 1.30996 7.82398 -8.77357 12.4327 -28.0053 32.7325 -3.59895 4.17086 11.6081 -18.7277 -0.285488 -9.19642 11.1281 25.6194 -56.3798 0.00881021 -0.00488915 -23.3083 23.2439 -9.41727 -4.0943 18.0242 -1.0183 11.2298 49.4549 -0.556943 -0.648671 -0.0189018 -0.0709532 57.9584 -18.0951 -1.33974 10.0236 -5.35888 -3.0634 -0.728473 -3.51094 55.1427 1.86484 4.0371 14.723 -5.1167 2.94779 5.32675 -6.2259 2.46815 -47.9574 -12.0978 7.62363 71.3149 -6.10167 25.0144 0.616863 14.9075 0.302319 -1.32245 -0.269458 
-9.95968 94.4988 -99.5019 5.30313 -9.55589 151.727 0.284126 4.18407 -3.19701 -0.103379 8.37112 -6.25318 -0.10338 8.37112 -6.25319 9.69356 -25.4779 32.6177 -4.65817 0.342457 13.6215 -26.5208 -1.21536 -8.89594 -8.86285 28.695 -34.8845 0.00972081 -0.0327627 -25.8382 14.7393 -13.1647 -3.24169 23.2093 -0.448676 13.4947 54.7013 -2.09033 0.131794 0.000229667 -0.0530094 67.924 -23.9351 -3.64068 9.16611 -3.87912 -13.4005 1.55514 -14.2814 79.0361 12.1511 4.59273 15.4248 -0.454762 2.3545 -1.49126 -6.38357 4.66498 -35.5585 -6.24817 5.07789 64.053 -3.89717 22.2953 -6.05178 13.6185 -1.02856 -8.05696 0.24407 
-8.35727 91.6783 -107.492 5.06803 -6.69805 151.259 0.0456323 4.09401 -1.21523 -1.20524 8.1955 -1.90964 -1.20524 8.1955 -1.90965 8.42813 -21.2708 34.9284 -7.60753 -2.73123 18.308 -25.336 -2.02461 -7.57257 -26.4874 25.8084 -10.077 0.0185748 -0.0896392 -33.5546 19.5663 -7.41976 0.463451 24.1621 -0.22609 13.7336 57.6716 -0.479377 1.7331 0.0192379 -0.0331387 81.9304 -35.1247 4.82077 2.02195 0.650926 -25.4062 2.59219 -164.878 77.9809 162.468 3.40305 10.0815 4.11413 1.77121 -10.0131 -7.3218 6.77716 -22.9686 0.671499 4.26938 60.4542 -3.26715 9.62125 -21.9601 9.99766 -1.52185 -14.6711 -5.00362 
-7.42551 89.5657 -115.973 5.49903 -5.33505 150.321 0.451057 3.59017 1.14127 -1.73014 7.15322 3.22949 -1.73014 7.15321 3.2295 7.97414 -18.476 38.315 -10.4389 -2.50303 23.3012 -17.2544 -2.29589 -5.04924 -37.0078 27.7916 11.4616 0.0204968 -0.138506 -44.0177 35.3147 -1.03499 2.31944 18.6552 -0.60452 11.2378 58.2822 2.16641 6.45003 0.0238851 -0.0189863 91.688 -45.8521 14.7756 -3.28832 8.15859 -39.5071 3.20132 -172.72 63.4746 170.544 -3.03158 1.16136 5.83992 1.14132 -12.3574 -6.06765 5.47001 -11.2055 3.33612 3.44956 55.4567 -2.31963 -2.18684 -32.131 4.96072 2.02227 -15.259 -6.70872 
-6.4743 88.5143 -125.67 4.08064 -5.35902 150.911 0.799779 2.7048 3.3413 -1.93016 5.34721 7.41783 -1.93016 5.34721 7.41784 6.15806 -17.9266 40.356 -11.0478 -0.412538 26.0558 -8.78464 -2.03889 -2.17953 -41.1013 36.4783 25.4063 0.0288858 -0.15101 -52.0311 38.6983 -3.8789 2.16789 9.71048 -0.662948 8.07921 56.7326 1.98806 13.3003 0.00820337 -0.0172147 93.3119 -53.612 18.3087 6.929 15.3464 -54.4657 6.62999 -173.608 59.4091 171.791 -8.15014 -6.68898 8.11403 0.785378 -7.72209 -3.49713 0.391614 -2.96765 2.71373 2.8192 49.9894 -1.22367 5.27523 -33.5697 9.71009 1.81243 -16.0537 -6.23897 
-4.50111 88.768 -137.01 1.05294 -7.05057 154.288 0.578302 1.54881 4.72719 -2.40782 2.99773 9.55813 -2.40782 2.99773 9.55814 2.16851 -19.1601 40.3913 -9.5251 1.45229 26.3773 -3.85223 -1.71862 -0.13169 -39.1696 44.6863 28.0557 0.0351974 -0.140381 -57.2509 32.5066 -8.1409 -0.532026 2.84605 -0.32047 6.19566 55.9399 -1.13913 17.4241 -0.0151138 -0.022764 90.8832 -52.1991 16.4855 24.7278 19.6329 -65.2453 13.3042 -172.21 65.2837 170.023 -2.7653 -11.2675 14.9405 0.665621 -3.49098 -2.21889 -3.32592 4.01522 2.31432 2.12554 42.0594 -0.169618 13.7292 -25.0646 9.05966 1.06043 -17.8206 -6.08273 
